<?xml version="1.0" encoding="UTF-8"?>
<svg id="Layer_1" xmlns="http://www.w3.org/2000/svg" version="1.1" viewBox="0 0 425.2 226.77">
  <!-- Generator: Adobe Illustrator 29.7.1, SVG Export Plug-In . SVG Version: 2.1.1 Build 8)  -->
  <defs>
    <style>
      .st0 {
        fill: #231f20;
      }

      .st1 {
        fill: #fff;
      }
    </style>
  </defs>
  <g>
    <polygon class="st0" points="21.23 87.76 26.62 158.8 36.97 157.25 36.57 158.28 45.12 155.6 55.53 148.7 52.95 133.13 55.17 138.19 65.18 149.38 67.07 148.99 68.01 150.07 94.47 147.81 92.12 144.25 95.4 147.71 99.36 149.2 151.57 150.16 152.78 147.94 153.04 80.3 150.12 77.7 93.97 83.07 91.78 84.97 93.25 81.86 90.09 82.21 84.23 77.52 84.23 77.52 59.93 78.35 62.62 100.86 60.31 97.07 47.8 88 23.09 90.01 31.26 88.78 21.23 87.76"/>
    <g>
      <path class="st1" d="M25.52,94.51l4.62,58.5.32.2,1.11.14,1.19.58-.02-.49h.38s.39.45.73.52,1.09-.2,1.34-.19,1.47.31,1.47.31c0,0,.89-.38,1.12-.4s1.39-.33,1.39-.33l.94-.95-.02-.46.61-.07.14-.24s.07-.48.13-.53.29-.19.49-.21.89-.85.89-.85c0,0,.22-.91.31-1.06s.92-.38.93-.67c.24.39.41.51.41.51l.51-.1.26.04v-.15s.4-.47.56-.47,1.18.24,1.43.23c-.03.63.03.97.03.97l.99-.35.6.08,1.03-.29.44-.28-1.58-24.78,21.97,20.6,18.75-1.11-2.79-58.79s-1.17.08-1.48.05-.46-.36-.63-.41-.68.25-.68.25c0,0-1.1.32-1.38.27s-.57-.3-.57-.3c0,0-.77.46-1.12.36s-1.39-.82-1.39-.82l-1.41.19-.09-.98-.96.17s-.11-.7-.11-.98-.08-.44-.08-.44l-1.99.67s-1.75.33-2.01.48-.71.5-.95.24-.28-.46-.28-.46l-1.11.68-.76-.08-.88.32-.63-.42-.86.02-.07.23-.32-.05.06.18-.55.03.46.41-.67.38-.41-.17,2.39,29.6-21.55-20.81-20.67,1.5Z"/>
      <path class="st0" d="M76.31,81.77s.08.16.08.44c0,.28.11.98.11.98l.96-.17.09.98,1.41-.19s1.03.72,1.39.82c.04.01.09.02.14.01.38-.01.99-.37.99-.37,0,0,.29.26.57.3.03,0,.06,0,.1,0,.38-.01,1.28-.28,1.28-.28,0,0,.42-.25.62-.25.02,0,.04,0,.05,0,.17.05.32.38.63.41.1,0,.3,0,.52,0,.44-.01.96-.05.96-.05l2.79,58.79-18.75,1.11-21.97-20.6,1.58,24.78-.44.28-1.03.29-.6-.08-.99.35s-.06-.34-.03-.97c-.24,0-1.27-.24-1.43-.23s-.57.47-.57.47v.15s-.26-.04-.26-.04l-.51.1s-.17-.13-.41-.51c0,.3-.84.52-.93.67-.09.15-.31,1.06-.31,1.06,0,0-.7.83-.89.85-.2.02-.42.16-.49.21-.06.05-.13.53-.13.53l-.14.24-.61.07.02.46-.94.95s-1.16.3-1.39.33c-.23.02-1.12.4-1.12.4,0,0-1.23-.3-1.47-.31,0,0-.02,0-.03,0-.23,0-.79.19-1.15.2-.06,0-.12,0-.17-.01-.33-.07-.73-.53-.73-.53h-.38s.02.51.02.51l-1.19-.58-1.11-.14-.32-.2-4.62-58.5,20.67-1.5,21.55,20.81-2.39-29.6.41.17.67-.38-.46-.41.55-.03-.06-.18.32.05.07-.23.86-.02.63.42.88-.32.76.08,1.11-.68s.04.2.28.46c.07.07.14.09.23.09.24,0,.53-.22.72-.33.26-.15,2.01-.48,2.01-.48l1.99-.67M76.26,80.46c-.12,0-.25.03-.37.07l-1.91.64c-1.28.24-1.83.4-2.1.5-.08-.06-.17-.12-.27-.16-.19-.08-.39-.12-.58-.12-.22,0-.44.07-.64.19l-.74.45-.32-.03c-.06,0-.12,0-.18,0-.14,0-.28.03-.41.08l-.25.09-.07-.05c-.22-.15-.48-.22-.75-.22l-.86.02s-.01,0-.02,0c-.24,0-.48.08-.67.21-.15.04-.3.11-.43.2-.4.08-.74.34-.91.71-.08.04-.15.08-.22.13-.37.27-.57.71-.53,1.16l2.11,26.14-19.05-18.4c-.26-.25-.6-.38-.96-.37-.02,0-.03,0-.05,0l-20.67,1.5c-.35.03-.67.19-.9.45-.23.26-.34.61-.31.96l4.62,58.5c.03.41.26.78.6,1l.32.2c.16.1.34.17.53.19l.89.12.99.49c.2.1.41.14.62.13.15,0,.31-.04.45-.1.1.04.21.07.31.1.15.03.31.05.49.04.33-.01.65-.09.94-.15.05-.01.13-.03.18-.04.24.04.75.16,1.16.26.12.03.24.04.36.04.16,0,.32-.04.46-.1.32-.13.69-.27.82-.31.14-.02.5-.09,1.51-.35.23-.06.44-.18.6-.35l.94-.95c.08-.08.14-.16.2-.25.24-.11.45-.29.59-.52l.14-.24c.05-.08.09-.16.12-.25.32-.16.7-.49,1.27-1.17.13-.16.22-.34.27-.54.02-.08.04-.17.06-.25.12.03.24.04.36.04.07,0,.14-.01.21-.02l.28-.06h.04c.08.02.16.02.24.02.27,0,.54-.1.75-.27.11.28.31.52.57.67.22.13.46.19.7.18.13,0,.27-.03.39-.07l.7-.25.29.04c.07,0,.14.01.21,0,.11,0,.21-.02.31-.05l1.03-.29c.12-.04.24-.09.35-.16l.44-.28c.4-.26.63-.71.6-1.19l-1.37-21.47,19.55,18.34c.25.24.59.37.94.35.01,0,.02,0,.03,0l18.75-1.11c.72-.04,1.27-.65,1.23-1.37l-2.79-58.79c-.02-.35-.17-.68-.44-.92-.25-.22-.58-.34-.92-.33-.01,0-.03,0-.04,0,0,0-.5.03-.91.05-.04,0-.08,0-.11,0-.14-.13-.35-.28-.63-.36-.15-.04-.31-.06-.47-.06-.32.01-.68.13-1.08.34-.23.06-.47.12-.64.15-.24-.2-.54-.3-.83-.29-.22,0-.45.07-.65.2-.07.04-.17.09-.25.13-.22-.13-.55-.34-.84-.54-.23-.16-.51-.24-.8-.24-.04,0-.09,0-.13.01h-.11c-.09-.2-.23-.39-.42-.53-.18-.14-.39-.22-.61-.26-.05-.27-.14-.46-.18-.55-.24-.46-.72-.73-1.21-.72h0Z"/>
    </g>
    <path class="st0" d="M30.48,153.65c-.16,0-.32-.08-.4-.23-.12-.21-.04-.48.17-.59.42-.23.98-.51,1.28-.52.04,0,.08-.02.11-.03l.12-.24c.07-.14.22-.23.37-.24h.4c.11-.02.21.02.3.09l.14.12.4.06.5.02s.03,0,.04,0l.55.08s.03,0,.04,0l.29.07.39-.1.66-.15s.05,0,.08,0l.58-.02s.09,0,.13.02l.31.09h.27s.25-.22.25-.22c.05-.04.1-.07.16-.08l.53-.14.65-1.41c.07-.15.22-.25.38-.25l.63-.02v-.34c-.02-.15.05-.29.18-.37l.29-.2c.07-.05.15-.07.23-.08l.69-.02.57-.19.18-.29-.04-.05c-.1-.13-.12-.29-.05-.44l.19-.45c.07-.15.22-.26.39-.26l.72-.02.41-.2c.1-.05.22-.06.33-.03l.42.13s.04.02.06.03l.5.24h.22c.07-.01.15,0,.21.04.39.19,1.15.47,1.56.4.77-.14,1.39-.05,1.42-.05.02,0,.05,0,.07.02l.67.22.8-.02c.24,0,.44.18.45.42,0,.24-.18.44-.42.45h0s-.88.03-.88.03c-.05,0-.1,0-.15-.02l-.7-.23c-.12-.01-.57-.05-1.1.05-.71.13-1.68-.28-2.01-.43h-.23c-.07.01-.14,0-.21-.04l-.57-.28-.22-.07-.34.17c-.06.03-.12.04-.18.05l-.49.02.03.04c.11.14.12.34.03.49l-.42.68c-.05.09-.14.16-.24.19l-.79.26s-.08.02-.12.02l-.61.02.02.52c0,.24-.18.44-.42.45l-.8.03-.63,1.35c-.05.12-.16.21-.28.24l-.63.17-.29.24c-.07.06-.17.1-.26.1l-.48.02s-.09,0-.13-.02l-.31-.09-.48.02-.6.13-.48.12c-.07.02-.14.02-.21,0l-.38-.09-.51-.07-.5-.02s-.03,0-.05,0l-.55-.09c-.08-.01-.15-.05-.22-.1l-.09-.08-.05.1c-.03.05-.06.1-.11.13-.05.04-.32.25-.7.26-.1.02-.52.21-.89.41-.06.03-.13.05-.19.05Z"/>
    <path class="st0" d="M82.02,86.22l-1.19.04c-.13,0-.26-.05-.34-.15l-.5-.57-.93.2c-.06.01-.13.01-.2,0l-.84-.2s-.02,0-.03,0l-.58-.19s-.08-.03-.12-.06l-1.51.64c-.21.09-.45,0-.56-.2l-.13-.26-.91.2c-.23.05-.46-.09-.52-.32l-.12-.47-.5.26s-.09.04-.14.05l-.38.06-.55.29c-.06.03-.12.05-.19.05l-.87.03c-.1,0-.19-.02-.27-.08l-.65-.46-.64.16s-.03,0-.05,0l-.98.14c-.11.02-.23-.01-.32-.08l-.96-.71h-.3c-.08.01-.16,0-.23-.05l-.08-.05-.46.26c-.21.12-.48.04-.6-.17-.12-.21-.04-.48.17-.6l.67-.38c.13-.07.3-.08.43,0l.19.11h.33c.1-.01.2.02.27.07l.94.69.78-.11.82-.2c.12-.03.25,0,.36.07l.69.49.62-.02.53-.28s.09-.04.14-.05l.39-.06.93-.49c.12-.06.26-.07.38-.01.12.05.21.16.25.29l.15.59.82-.18c.19-.04.39.05.48.23l.1.2,1.47-.62c.22-.09.47,0,.57.23h0s.38.13.38.13l.73.17,1.09-.24c.16-.03.32.02.42.14l.53.6.84-.03.71-.55c.13-.1.3-.12.44-.05l.18.08.6-.25s.05-.02.07-.02l1.22-.27,1.02-.3c.23-.07.47.06.54.3s-.06.47-.3.54l-1.03.3s-.02,0-.03,0l-1.2.26-.74.31c-.11.05-.23.04-.34,0l-.11-.05-.62.47c-.07.06-.16.09-.25.09Z"/>
    <g>
      <path class="st1" d="M147.35,94.06c-.24-7.35-7.56-6.58-7.56-6.58,0,0-33.92,2.42-40.97,2.8-8.44.45-7.75,6.57-7.75,6.57l1.61,38.7s-.03,7.56,9.61,7.37c11.53-.22,26.44.09,36.68-.26,9.61-.33,8.93-8.57,8.93-8.57,0,0-.29-31.98-.55-40.02ZM132.54,122.86l-2,.95s-3-.35-3.82-.32-2.64-.32-3.24-.57c-.6-.25-3.01-.62-3.01-.62,0,0-2.05-.34-2.6-.55-.55-.21-1.36.05-1.36.05l.2-2.18-.82-1.51-1.55-3.03-1.5-2.76-3.32-5.64-.34-.49.37-1.02,1.19-.23s.54-.13.31-.66c-.05-.12,1,.33,1,.33l.44-.31,1.26.77,1.38.3s1.22-.74,1.43-.74,1.58,1.18,1.58,1.18l1.81-.47s.65,1.21,1.04,1.37.98-.19.98-.19l1.41,1.2s1.32.94,1.73,1.51.98,1.61,1.84,2.88,1.81,2.79,2.83,4.52c.4.67,1.4,1.34,1.77,2.32s.63,2.47.63,2.47l.37,1.46Z"/>
      <path class="st0" d="M138.99,143.31h0c-5.67.19-12.9.18-19.9.17-5.72,0-11.64-.02-16.8.08-3.43.07-6.09-.8-7.91-2.59-2.29-2.25-2.37-5.14-2.37-5.42l-1.61-38.67c-.03-.29-.17-2.52,1.47-4.47,1.43-1.69,3.75-2.63,6.9-2.8,6.96-.37,40.62-2.77,40.96-2.79.12-.01,3.55-.34,5.98,1.77,1.44,1.26,2.21,3.09,2.29,5.44.25,7.87.54,39.04.55,40.01.02.36.18,3.67-2.13,6.27-1.66,1.87-4.17,2.87-7.44,2.99ZM140.1,88.12c-.15,0-.24.01-.24.01-.36.03-34.03,2.43-41,2.8-2.76.15-4.76.93-5.95,2.32-1.36,1.6-1.19,3.5-1.18,3.52v.04s1.61,38.71,1.61,38.71h0s.03,2.61,2,4.53c1.55,1.52,3.89,2.26,6.95,2.2,5.17-.1,11.1-.09,16.82-.08,6.98,0,14.21.02,19.85-.17h0c2.89-.1,5.07-.95,6.49-2.54,2.02-2.26,1.81-5.3,1.81-5.33v-.02s0-.02,0-.02c0-.32-.29-32.06-.55-40.01h0c-.06-1.97-.68-3.48-1.83-4.49-1.66-1.45-4.01-1.5-4.77-1.48ZM130.66,124.49l-.19-.02c-.82-.1-3.09-.34-3.72-.32-.91.03-2.84-.34-3.51-.62-.36-.15-1.89-.43-2.85-.58-.36-.06-2.15-.36-2.73-.58-.23-.09-.69-.02-.93.06l-.93.29.27-2.96-.73-1.34-1.56-3.04-1.49-2.73-3.3-5.61-.52-.75.61-1.69,1.31-.26-.09-.2.31-.35c.31-.31.66-.24,1.38.06l.49-.35,1.53.94,1.02.22c1.18-.7,1.39-.7,1.54-.7.21,0,.43,0,1.75,1.11l1.98-.51.24.45c.24.44.57.92.73,1.07.09,0,.26-.07.38-.14l.4-.24.36.3,1.39,1.18c.22.16,1.41,1.03,1.86,1.65.2.28.42.64.71,1.1.31.5.69,1.12,1.15,1.79.83,1.23,1.82,2.8,2.85,4.55.12.2.35.44.59.7.45.47.96,1.01,1.23,1.73.38,1,.63,2.35.66,2.56l.49,1.95-2.65,1.27ZM117.26,121.02c.28,0,.58.02.86.12.36.13,1.71.39,2.48.51.41.06,2.51.4,3.15.66.52.22,2.26.54,2.96.52.75-.03,3.01.22,3.73.3l1.34-.64-.25-.98s-.25-1.4-.6-2.35c-.18-.47-.57-.89-.95-1.29-.3-.31-.57-.6-.77-.94-1.02-1.73-1.98-3.27-2.8-4.48-.47-.7-.87-1.33-1.18-1.84-.26-.42-.48-.78-.65-1.02-.25-.35-1.1-1.02-1.58-1.36l-.04-.03-1.1-.93c-.32.11-.74.19-1.14.02-.38-.17-.78-.69-1.1-1.22l-1.66.43-.26-.22c-.41-.35-.92-.77-1.2-.96-.25.13-.69.37-1.04.59l-.22.14-1.74-.37-.98-.6-.39.28-.34-.14c-.07-.03-.14-.06-.21-.09-.24.34-.61.44-.69.46h-.02s-.82.17-.82.17l-.13.35.18.26,3.33,5.66,1.5,2.76,1.56,3.04.91,1.67-.14,1.54h0Z"/>
    </g>
    <g>
      <path class="st0" d="M123.93,134.78c-.07,0-.14-.01-.2-.04l-1.5-.7s-.05-.02-.07-.04l-1.97-1.4-2.76-1c-.1-.04-.19-.11-.24-.21l-1.09-2.06c-.05-.09-.06-.2-.04-.3l.24-1.08-.2-1.71-.57-.35c-.14-.09-.22-.24-.21-.41.01-.16.12-.31.27-.37,0,0,.15-.07.31-.19.24-.2.37-.42.39-.68.05-.88.13-2.13.13-2.13,0-.06.02-.11.05-.17.14-.28.62-.67,2.22-.1.27.09.61.14.98.19.28.04.57.08.88.15.16.04.49.09.86.16,1.06.19,2.67.48,3.44.75.74.26,1.13.27,2.08.29h.19c.68.03,3.24.26,3.82.31l1.93-.88c.11-.05.23-.05.35,0l.86.35s.08.04.11.06l.73.59,1.5.26,2.97-.13c.19,0,.36.11.43.28.07.18.01.38-.13.49l-1.81,1.47.24.47c.07.13.06.29-.01.42-.08.13-.21.21-.36.21l-.5.02-.36.76c-.03.06-.08.12-.13.16l-.7.53c-.07.05-.16.09-.25.09l-.87.03-.6.55c-.07.06-.15.1-.24.11l-1.77.22s-.03,0-.04,0h-.15s0,.07,0,.07c0,.13-.05.25-.15.34l-2.14,1.9c-.06.05-.14.09-.22.1l-1.16.2-.41.5s-.03.04-.05.05l-1.41,1.22c-.06.05-.13.09-.21.1l-1.19.2-1.18.3s-.06.01-.09.01ZM122.64,133.26l1.32.62,1.05-.27s.02,0,.03,0l1.08-.18,1.29-1.12.48-.6c.07-.08.16-.14.26-.16l1.2-.21,1.89-1.68v-.3c-.02-.24.17-.44.41-.45l.56-.02,1.61-.2.62-.57c.08-.07.18-.11.28-.11l.89-.03.5-.38.42-.9c.07-.15.22-.24.38-.25h.08s-.09-.17-.09-.17c-.09-.18-.05-.41.11-.54l1.06-.85-1.69.07s-.06,0-.09,0l-1.65-.29c-.07-.01-.14-.04-.2-.09l-.77-.62-.63-.26-1.86.85c-.07.03-.15.04-.22.04-.03,0-3.15-.29-3.88-.32h-.19c-.98-.03-1.48-.05-2.34-.35-.71-.25-2.27-.53-3.31-.71-.4-.07-.72-.13-.9-.17-.27-.06-.54-.1-.81-.13-.41-.06-.8-.11-1.15-.24-.62-.22-.96-.24-1.12-.24-.03.41-.08,1.23-.11,1.87-.03.46-.23.87-.59,1.21l.17.11c.11.07.19.19.21.32l.23,1.99s0,.1,0,.14l-.22,1,.93,1.77,2.66.96s.07.03.11.06l1.98,1.41Z"/>
      <path class="st0" d="M131.7,130c-.13,0-.26-.03-.38-.11-.3-.2-.39-.6-.19-.91l.55-.85-.14-.21-.75-.6c-.28-.23-.33-.64-.1-.92s.64-.33.92-.1l.83.66c.05.04.1.09.14.15l.43.64c.14.21.15.48.02.7l-.28.47s0,.01-.01.02l-.49.76c-.12.19-.32.29-.53.3Z"/>
      <path class="st0" d="M132.25,128.24c-.16,0-.31-.08-.4-.22-.12-.21-.04-.48.17-.59l.94-.52c.21-.12.48-.04.59.17.12.21.04.48-.17.59l-.94.52c-.06.04-.13.05-.2.06Z"/>
      <path class="st0" d="M106.12,119.75c-.17,0-.34-.09-.41-.26l-.71-1.57c-.02-.05-.04-.11-.04-.16l-.03-1-.91-1.08c-.06-.07-.1-.17-.1-.27l-.04-1.03-.43-.54c-.07-.08-.1-.18-.1-.29l.09-2.61c0-.24.21-.43.45-.42.24,0,.43.21.42.45l-.08,2.45.42.52c.06.07.09.16.1.26l.04,1.03.91,1.08c.06.07.1.17.1.27l.04,1.07.67,1.49c.1.22,0,.48-.22.58-.05.02-.11.04-.16.04Z"/>
      <path class="st0" d="M103.8,108.31s-.04,0-.05,0c-.24-.02-.42-.23-.4-.47l.15-1.79c.01-.13.08-.26.2-.33l.46-.3.19-2.33s0-.05.01-.08l.31-1.18c.06-.23.3-.37.54-.31.23.06.37.3.31.54l-.3,1.14-.2,2.51c-.01.13-.08.26-.2.33l-.46.3-.14,1.58c-.02.22-.2.39-.42.4Z"/>
      <path class="st0" d="M115.54,123.98c-.17,0-.35-.06-.48-.19-.24-.24-.27-.62-.06-.88l.81-1.02c.15-.19.39-.27.61-.24h0c.27-.25.68-.22.93.05.24.27.22.68-.05.93l-.73.66s-.01,0-.02.01l-.62.53c-.12.1-.26.15-.4.15Z"/>
      <path class="st0" d="M133.08,123.88c-.3.01-.58-.19-.66-.5l-.34-1.37c-.09-.35.12-.71.48-.8.35-.09.71.12.8.48l.34,1.37c.09.35-.12.71-.48.8-.05.01-.09.02-.14.02Z"/>
      <g>
        <path class="st0" d="M110.88,123.36l-1.73.06-1.14-1.62-.69-1.2-1.41-1.1-.74-.18-1.03-.8c-.49-.2-1.24-.61-1.26-1.19,0-.08-.05-.29-.09-.48-.14-.62-.32-1.46-.15-2.19.06-.27.13-.52.19-.77.15-.6.3-1.17.44-2,.11-.61.18-1.21.24-1.74.06-.5.11-.93.18-1.29.1-.53-.26-.97-.65-1.43l-.02-.02c-.54-.65-.64-2.39-.42-3.09.06-.18.1-.35.14-.5.08-.32.15-.6.34-.83.11-.14.32-.32.69-.63.34-.29.77-.65.99-.91.27-.32.64-1.23.8-1.72l.29-.89.49.79s1.22,1.97,1.84,2.67c.53.61.58,1.21.61,1.75.02.24.03.47.09.7.12.48,1.8,3.18,3.32,5.47l.02.04s3.86,7.29,4.73,8.93c.63,1.17-.16,2.9-.25,3.09l-.82-.3c.33-1.22.17-1.99.07-2.28-.08-.03-.21-.07-.42-.14-.34-.1-1.06.43-1.41.69-.06.05-.12.09-.18.13-.15.17-.3,1.18-.3,2.15v.37s-2.78.47-2.78.47ZM109.59,122.53l1.2-.04,2-.34c.03-.9.16-2.13.66-2.49.05-.04.11-.08.17-.12.55-.4,1.36-1,2.1-.84-1.29-2.43-4.06-7.66-4.25-8.01-.57-.85-3.22-4.89-3.43-5.73-.07-.3-.09-.59-.11-.85-.04-.49-.06-.85-.4-1.23-.41-.47-1.03-1.39-1.45-2.04-.18.42-.41.9-.65,1.18-.26.31-.7.68-1.09,1.01-.21.18-.5.43-.56.5-.07.09-.12.27-.18.52-.04.16-.09.34-.15.54-.16.5-.03,1.91.26,2.27l.02.02c.45.54,1,1.22.83,2.15-.06.34-.11.76-.17,1.24-.07.54-.14,1.15-.25,1.78-.15.86-.3,1.47-.46,2.06-.06.25-.13.49-.19.75-.13.54.03,1.27.15,1.8.05.25.1.44.11.6.08.12.45.34.77.47l.06.02.98.76.74.18,1.69,1.32.77,1.33.84,1.18Z"/>
        <polygon class="st0" points="127.69 132.83 123.96 132.56 122.34 132.61 121.6 131.75 120.63 131.43 120.29 131.12 119.16 131 117.25 129.52 116.25 127.76 116.86 126.57 116.76 126.17 115.88 125.36 116.48 124.72 117.53 125.7 117.8 126.66 117.24 127.74 117.92 128.94 119.5 130.15 120.68 130.28 121.08 130.66 122.1 131 122.73 131.73 124 131.68 127.76 131.96 127.69 132.83"/>
        <path class="st0" d="M114.2,124.82h-.87c-.01-1.61.33-1.79.48-1.87.2-.11.45-.12.85-.14.19,0,.52-.02.61-.06,0,0-.01,0-.03.02l.56.67c-.25.21-.64.23-1.1.25-.12,0-.29.01-.4.03-.05.21-.09.68-.09,1.11ZM114.32,123.63h0Z"/>
        <path class="st0" d="M132.4,122.18l-.11-.43c-.05-.2-.51-1.94-.57-2.43-.06-.24-.83-1.2-1.24-1.71-.3-.38-.57-.7-.72-.93-.15-.22-.5-.8-.95-1.53-.68-1.12-1.83-3-2.07-3.25-.51-.4-1.59-2.57-1.6-2.59-.17-.28-1.81-1.68-3.29-2.87l-.31-.25.22-.33c.08-.13.84-1.24,1.58-1.54.69-.28,2.33-.24,3.58-.15.9.06,1.68,1.05,2.03,1.58l1.17-.44,2.22,1.27.56,1.4,1.41,1.88.23.86,1.72,1.95,1.27,2.98-.81.38c.52.34.52.58.51.7,0,.09-.03.38-.4.52-.4.15-1.21.66-1.59.97.22.13.57.3.91.43l.68.27-.55.47c-.36.31-.73.72-.79.89.12.64-.51,1.08-.59,1.13l-.06.04-2.46.72ZM122.72,106.02c1.23.99,3,2.47,3.21,2.92.27.57,1.12,2.08,1.35,2.28.22.16.67.84,2.28,3.49.42.69.78,1.29.92,1.49.13.19.4.52.68.87.97,1.21,1.39,1.77,1.43,2.15.03.29.27,1.23.43,1.88l1.46-.42c.09-.08.16-.18.17-.22-.09-.38.2-.83.58-1.23-.97-.47-.98-.77-.99-.93-.02-.55,1.16-1.25,1.84-1.61-.15-.08-.34-.17-.51-.24l-.92-.38,1.76-.82-.88-2.08-1.76-2-.24-.9-1.38-1.84-.49-1.22-1.6-.92-1.47.55-.18-.32c-.26-.46-.98-1.42-1.53-1.45-1.57-.11-2.79-.08-3.19.08-.28.12-.67.53-.95.89ZM136.52,116.45s0,0,0,0c0,0,0,0,0,0ZM126.74,111.91s0,0,.01,0c0,0,0,0-.01,0Z"/>
        <path class="st0" d="M121.4,106.8c-.22,0-.44-.05-.63-.21-.21-.18-.41-.5-.62-.83-.08-.13-.19-.31-.28-.42-.12.03-.3.09-.44.13-.75.22-1.1.32-1.33.28-.23-.03-.46-.22-.95-.63-.19-.16-.48-.41-.65-.51-.06.04-.16.1-.24.15-.43.28-.97.63-1.47.56-.54-.07-1.21-.27-1.24-.28l-.06-.02-1.14-.74-.46.34-.65-.23c-.11.25-.31.46-.62.53-.29.06-.72.14-.99.2l-.29.82-.82-.29.46-1.29.25-.05s.79-.15,1.22-.24c.01-.02.03-.13.02-.21l-.07-.68,1.36.48.58-.42,1.54,1.01c.17.05.66.18,1.05.23.17.03.67-.3.88-.43.25-.16.42-.27.59-.31.34-.07.67.19,1.33.74.17.14.42.35.54.43.19-.03.67-.17.93-.25.48-.14.66-.19.79-.2.37-.01.58.32.92.86.14.23.34.54.45.64.07.02.35-.08.54-.2l.48.73c-.11.07-.52.32-.96.34ZM116.42,104.56h0Z"/>
        <path class="st0" d="M112.77,103.8l-.87-.1.23-1.99c-.24-.51-.56-1.03-.71-1.13-.51-.07-.82-.3-.85-.33l-.26-.2.65-1.72-.16-1.21.87-.12.19,1.43-.47,1.25c.05.02.12.03.18.04.31.04.8.37,1.41,1.75l.05.11-.25,2.23Z"/>
        <rect class="st0" x="112.99" y="100.95" width=".87" height="1.74" transform="translate(-10.15 191.04) rotate(-77.74)"/>
        <polygon class="st0" points="110.77 99.12 110.41 98.06 109.91 97.83 110.29 97.04 111.12 97.43 111.6 98.84 110.77 99.12"/>
      </g>
      <path class="st0" d="M126.72,112.04s-.03,0-.05,0c-.36-.01-.65-.32-.63-.68l.04-1.27-.64-.1c-.36-.06-.6-.39-.55-.75.06-.36.39-.6.75-.55l1.22.19c.33.05.57.34.55.67l-.06,1.85c-.01.35-.29.62-.63.63Z"/>
      <path class="st0" d="M135.53,118.17s-.04,0-.07,0c-.24-.03-.41-.24-.38-.48,0-.01.04-.42-.16-.78-.26-.48-.74-1.19-.75-1.19-.06-.09-.09-.19-.07-.3l.03-.27-.28-.15c-.14-.07-.22-.21-.23-.37l-.04-1.23s0-.03,0-.04l.13-1.93-.66-.34c-.05-.03-.09-.06-.13-.1l-.95-1.11-.39-.41-.51.02c-.18,0-.35-.1-.42-.28l-.53-1.34-.64-1.59c-.09-.22.02-.48.24-.57.22-.09.48.02.57.24l1.06,2.65h.4c.12-.02.24.03.33.12l.54.56s.01.01.02.02l.9,1.06.84.44c.15.08.25.24.23.42l-.15,2.19.03.96.32.18c.16.09.24.26.22.43l-.05.4c.16.24.49.74.7,1.13.33.61.27,1.23.26,1.3-.03.22-.21.38-.42.39Z"/>
    </g>
  </g>
  <path class="st0" d="M152.33,80.56s54.84-2.68,64.91-2.22c-.31,1.53-.47,3.09-.47,3.09l1.76,21.26-24.41.15.88,39.46-23.12,2.07s.18-40.02.17-40.25c-.03-.67.5-1.32.5-1.32l-18.73.46-1.49-22.72Z"/>
  <polygon class="st0" points="218.32 141.64 217.47 82.98 218.04 79.04 233.17 79.36 240.4 79.04 241.91 138.81 218.32 141.64"/>
  <polygon class="st0" points="245.98 139.79 244.32 80.15 268.11 78.15 290.57 118.5 311.92 78.98 335.05 78.42 336.74 140.82 312.45 139.01 311.9 120.65 302.37 139.35 279.43 141.05 268.3 119.94 269.09 140.49 245.98 139.79"/>
  <polygon class="st0" points="340.57 140.97 338.77 77.24 401.53 76.69 400.75 97.06 359.8 99.54 359.84 100.82 380.63 100.64 383.05 118.11 360.71 118.49 360.77 120.08 403.24 119.61 403.97 140.94 340.57 140.97"/>
</svg>